<?xml version="1.0" standalone="no"?>
<!DOCTYPE svg PUBLIC "-//W3C//DTD SVG 20010904//EN"
 "http://www.w3.org/TR/2001/REC-SVG-20010904/DTD/svg10.dtd">
<svg version="1.0" xmlns="http://www.w3.org/2000/svg"
 width="244.000000pt" height="124.000000pt" viewBox="0 0 244.000000 124.000000"
 preserveAspectRatio="xMidYMid meet">
<metadata>
Created by potrace 1.15, written by Peter Selinger 2001-2017
</metadata>
<g transform="translate(0.000000,124.000000) scale(0.100000,-0.100000)"
fill="#000000" stroke="none">
<path d="M465 878 c-32 -11 -91 -52 -113 -78 -7 -8 -25 -39 -39 -69 -57 -119
-3 -267 122 -334 57 -31 183 -31 241 0 80 42 144 147 144 233 0 94 -66 195
-155 236 -55 26 -145 31 -200 12z m182 -59 c73 -35 123 -115 123 -196 0 -48
-50 -135 -95 -165 -22 -14 -50 -29 -62 -33 -21 -6 -22 -3 -25 62 l-3 68 -30 0
-30 0 -3 -68 c-3 -65 -4 -68 -25 -61 -155 48 -208 232 -99 348 61 65 168 84
249 45z"/>
<path d="M950 630 l0 -110 63 0 c49 0 68 4 80 18 18 20 23 77 8 86 -5 3 -7 23
-4 44 7 55 -13 72 -88 72 l-59 0 0 -110z"/>
<path d="M1657 698 c-8 -24 -26 -73 -40 -110 l-26 -68 28 0 c20 0 31 7 39 25
9 19 19 25 42 25 23 0 33 -6 40 -25 7 -18 17 -25 35 -25 14 0 25 3 25 8 0 4
-17 53 -37 110 -35 95 -39 102 -64 102 -23 0 -29 -7 -42 -42z"/>
<path d="M1910 710 c0 -28 -2 -30 -38 -30 -51 0 -72 -24 -72 -81 0 -24 4 -49
8 -55 16 -24 51 -33 101 -27 l51 6 0 108 0 109 -25 0 c-21 0 -25 -5 -25 -30z"/>
<path d="M1275 658 c-40 -59 1 -145 65 -136 19 3 29 1 27 -6 -2 -6 -22 -11
-45 -10 -32 0 -42 -3 -45 -18 -7 -25 35 -42 80 -33 50 9 63 36 63 136 l0 87
-65 1 c-55 1 -66 -2 -80 -21z"/>
<path d="M1454 659 c-11 -13 -19 -35 -19 -59 0 -67 54 -102 122 -79 51 17 41
44 -16 44 -26 0 -46 5 -48 13 -3 8 10 12 46 12 49 0 51 1 51 28 0 39 -28 62
-77 62 -28 0 -46 -6 -59 -21z"/>
<path d="M1994 665 c-10 -24 5 -34 41 -28 48 8 44 -4 -5 -17 -43 -12 -65 -39
-55 -70 10 -30 37 -40 94 -33 l51 6 0 63 c0 44 -5 67 -16 78 -20 21 -102 22
-110 1z"/>
<path d="M2140 600 c0 -79 0 -80 25 -80 24 0 25 3 25 54 0 40 4 55 16 60 27
10 34 -3 34 -60 0 -51 1 -54 25 -54 23 0 25 3 25 49 0 49 18 79 40 66 5 -3 10
-31 10 -61 0 -51 1 -54 25 -54 24 0 25 3 25 58 0 93 -9 100 -140 101 l-110 1
0 -80z"/>
<path d="M1794 368 c-10 -29 -20 -56 -22 -60 -2 -4 3 -8 12 -8 9 0 16 7 16 15
0 9 9 15 25 15 16 0 25 -6 25 -15 0 -9 9 -15 25 -15 17 0 25 6 25 17 0 15 1
15 18 0 12 -11 36 -17 66 -17 l47 0 -3 43 c-3 39 -5 42 -35 45 -19 2 -33 -1
-33 -7 0 -6 12 -11 28 -12 27 -1 27 -1 2 -8 -14 -4 -27 -17 -30 -31 l-6 -25
-13 23 c-10 18 -10 26 0 38 16 20 2 31 -21 16 -18 -11 -20 -9 -20 13 0 48 -19
25 -22 -27 l-3 -53 -19 53 c-11 28 -25 52 -31 52 -6 0 -20 -23 -31 -52z"/>
</g>
</svg>
